<?xml version="1.0" encoding="UTF-8" standalone="no"?>
<!DOCTYPE svg PUBLIC "-//W3C//DTD SVG 1.1//EN" "http://www.w3.org/Graphics/SVG/1.1/DTD/svg11.dtd">
<svg width="100%" height="100%" viewBox="0 0 512 512" version="1.1" xmlns="http://www.w3.org/2000/svg" xmlns:xlink="http://www.w3.org/1999/xlink" xml:space="preserve" xmlns:serif="http://www.serif.com/" style="fill-rule:evenodd;clip-rule:evenodd;stroke-linejoin:round;stroke-miterlimit:2;">
    <g id="Logo" transform="matrix(0.107869,0,0,0.107869,-414.271,-181.891)">
        <path d="M5049.28,5852.82C5049.28,5852.82 4508.77,5364.66 4428.48,4569.25C4347.98,3771.76 4536.39,3289.86 4857.59,3317.39C5143.9,3341.94 5295.62,3653.04 5825.01,4361.55C6254.17,4935.92 6764.58,5591.29 7354.1,5564.36C7943.62,5537.42 8428.46,4851.83 8401.35,4023.53C8363.94,2880.51 7583.19,2315.5 7583.19,2315.5C7583.19,2315.5 7996.73,3051.27 7951.06,3661.71C7911.67,4188.24 7837.83,4462.34 7583.19,4439.26C7349.53,4418.08 7172.6,4040.18 6750.47,3436.97C6156.45,2588.16 5743.53,2196.37 5169.42,2270.4C4578.03,2346.66 4073.32,3161.21 4030.03,3865.29C3986.75,4569.38 4239.15,4969.58 4385.37,5235.81C4531.58,5502.04 5049.28,5852.82 5049.28,5852.82Z" style="fill:white;"/>
    </g>
</svg>
