<?xml version="1.0" encoding="UTF-8" standalone="no"?>
<!DOCTYPE svg PUBLIC "-//W3C//DTD SVG 1.1//EN" "http://www.w3.org/Graphics/SVG/1.1/DTD/svg11.dtd">
<svg width="100%" height="100%" viewBox="0 0 2048 440" version="1.1" xmlns="http://www.w3.org/2000/svg" xmlns:xlink="http://www.w3.org/1999/xlink" xml:space="preserve" xmlns:serif="http://www.serif.com/" style="fill-rule:evenodd;clip-rule:evenodd;stroke-linejoin:round;stroke-miterlimit:2;">
    <g transform="matrix(0.245693,0,0,0.245693,-272.755,-1294.91)">
        <path d="M4047.48,6723.79L4317.16,6720.53L4322.26,6068.78C4322.26,6068.78 4330.78,5957.71 4487.43,5956.1C4644.08,5954.48 4662.95,6071.47 4662.95,6071.47L4671.98,6714.31L4943.91,6711.07L4948.74,6079.81C4948.74,6079.81 4968.92,5958.78 5118.31,5956.1C5267.69,5953.41 5297.6,6096.64 5297.6,6096.64L5303.98,6717.71L5574.9,6720.95C5574.9,6720.95 5577.92,6277.81 5580.51,6086.39C5582.89,5910.44 5392.07,5675.4 5162.51,5676.92C4882.38,5678.78 4812.18,5799.79 4812.18,5799.79C4812.18,5799.79 4706.44,5675.94 4465.86,5679.65C4229,5683.3 4033.82,5891.49 4037.48,6066.94C4041.33,6251.23 4047.48,6723.79 4047.48,6723.79Z"/>
    </g>
    <g transform="matrix(0.245693,0,0,0.245693,-321.637,-1294.91)">
        <path d="M6170.96,5749.46C5994.17,5872 5930.37,5970.41 5921.71,6157.35C5913.05,6344.28 5969.44,6480.39 6098.43,6593.43C6227.42,6706.46 6318.18,6725.19 6440.13,6723.79C6562.07,6722.4 6711.99,6675.69 6711.99,6675.69L6712.78,6723.79L6983.32,6723.79C6983.32,6723.79 6985.52,6260.4 6986.78,6084.57C6987.63,5967.01 6902.54,5815.47 6715.7,5717.99C6550.1,5631.6 6347.74,5626.91 6170.96,5749.46ZM6468.92,5945.47C6610.49,5945.47 6725.43,6060.41 6725.43,6201.98C6725.43,6343.55 6610.49,6458.49 6468.92,6458.49C6327.35,6458.49 6212.41,6343.55 6212.41,6201.98C6212.41,6060.41 6327.35,5945.47 6468.92,5945.47Z"/>
    </g>
    <g transform="matrix(0.245693,0,0,0.245693,-362.632,-1294.91)">
        <path d="M8014.58,5923.98C8014.78,5770.75 8016.96,5656.18 8016.96,5656.18C8016.96,5656.18 7417.14,5673.9 7412.82,6138.57C7408.51,6603.26 7409.87,6728.39 7409.87,6728.39L7685.82,6728.39C7685.82,6728.39 7686.8,6420.3 7685.88,6291.94C7684.86,6150.79 7745.93,5939.12 8014.58,5923.98Z"/>
    </g>
    <g transform="matrix(0.245693,0,0,0.245693,-382.07,-1294.91)">
        <path d="M8335.41,5279.82L8615.05,5393.28L8615.14,5722.95C8615.14,5722.95 9023.32,5522.07 9286.44,5855.94C9549.56,6189.81 9364.67,6531.92 9187.08,6642.5C9009.48,6753.07 8676.78,6767.38 8488.9,6582.06C8346,6441.1 8345.8,6290.69 8344.26,6146.52C8341.84,5921.31 8335.41,5279.82 8335.41,5279.82ZM8882.95,5936.45C9024.52,5936.45 9139.46,6051.39 9139.46,6192.96C9139.46,6334.53 9024.52,6449.47 8882.95,6449.47C8741.38,6449.47 8626.44,6334.53 8626.44,6192.96C8626.44,6051.39 8741.38,5936.45 8882.95,5936.45Z"/>
    </g>
    <g transform="matrix(0.245693,0,0,0.245693,-427.272,-1296.87)">
        <path d="M9782.96,5398.4L9789.92,6724.43L10073.2,6723.58L10074.7,5300.4L9782.96,5398.4Z"/>
    </g>
    <g id="Logo" transform="matrix(0.122287,0,0,0.122287,-492.219,-277.121)">
        <path d="M5049.28,5852.82C5049.28,5852.82 4508.77,5364.66 4428.48,4569.25C4347.98,3771.76 4700.7,3119.17 5022.32,3141.16C5422.63,3168.52 5417.72,3650.73 5911.68,4384.38C6327.73,5002.32 6764.58,5591.29 7354.1,5564.36C7943.62,5537.42 8428.46,4851.83 8401.35,4023.53C8363.94,2880.51 7583.19,2315.5 7583.19,2315.5C7583.19,2315.5 7996.73,3051.27 7951.06,3661.71C7911.67,4188.24 7839.03,4696.56 7511.75,4704.57C7171.71,4712.88 7110.58,4496.09 6684.19,3847.12C6196.15,3104.3 5743.53,2196.37 5169.42,2270.4C4578.03,2346.66 4073.32,3161.21 4030.03,3865.29C3986.75,4569.38 4239.15,4969.58 4385.37,5235.81C4531.58,5502.04 5049.28,5852.82 5049.28,5852.82Z" style="fill:url(#_Linear1);"/>
    </g>
    <defs>
        <linearGradient id="_Linear1" x1="0" y1="0" x2="1" y2="0" gradientUnits="userSpaceOnUse" gradientTransform="matrix(3191.92,2417.51,-2417.51,3191.92,4603.43,2816.47)"><stop offset="0" style="stop-color:rgb(255,147,0);stop-opacity:1"/><stop offset="1" style="stop-color:rgb(255,39,0);stop-opacity:1"/></linearGradient>
    </defs>
</svg>
